# xmcd CD database file
#
# Track frame offsets:
#	151
#	19804
#	42107
#	66804
#	94353
#	121544
#	143620
#	168936
#	186053
#	212753
#	230112
#	262804
#
# Disc length: 3706 seconds
#
# Revision: 0
# Processed by: cddbd v1.4PL0 Copyright (c) Steve Scherf et al.
# Submitted via: CDex 1.50Beta3
#
DISCID=9c0e780c
DTITLE=Gary Moore - Blues Guitar
DYEAR=2001
DGENRE=Blues
TTITLE0=Back on the street
TTITLE1=Put it this way
TTITLE2=Song for Donna
TTITLE3=The scorch
TTITLE4=Desperado
TTITLE5=Hurricane
TTITLE6=Castles
TTITLE7=Don't believe a word
TTITLE8=Fighting talk
TTITLE9=Spanish guitar
TTITLE10=Flight of the snow moose
TTITLE11=Parisienne walkways
EXTD=YEAR: 2001
EXTT0=
EXTT1=
EXTT2=
EXTT3=
EXTT4=
EXTT5=
EXTT6=
EXTT7=
EXTT8=
EXTT9=
EXTT10=
EXTT11=
PLAYORDER=
